<svg id="Layer_1" enable-background="new 0 0 100 100" viewBox="0 0 100 100" xmlns="http://www.w3.org/2000/svg"><path d="m96.8836746 19.0683708c-.7995605-.799551-2.0988235-.799551-2.7984314-.0999432l-16.8905258 16.8905202c-.4997177.899498-1.6990433 1.0993843-2.4985962.5996628-.7995529-.4997177-1.0993805-1.6990471-.5996628-2.4985962.0999451-.1998901.2998352-.3997765.5996628-.5996628l16.8905182-16.8905201c.7995605-.799552.7995605-1.9988785 0-2.6984854-.7995529-.799552-1.9988785-.799552-2.6984787 0l-16.9904633 16.7905741c-.6996078.8994961-1.9988785.9994392-2.8983765.2998314-.6996078-.8994942-.4997177-2.1987667.2998352-2.8983727l16.8905182-16.8905201c.7995529-.799552.7995529-1.9988785 0-2.6984854-.7995529-.799552-1.9988785-.799552-2.6984787 0l-16.8905334 16.8905192c-.6996002.8994942-1.9988785.9994392-2.8983727.2998314-.6996078-.8994961-.4997215-2.1987667.2998314-2.8983727l16.990471-16.7905764c.7995529-.7995515.7995529-1.9988782 0-2.6984856l-.0999451-.0999436c-.6996078-.6996076-1.798996-.7995512-2.5985413-.0999439l-10.2942276 8.3952875c-10.6939964 8.7950659-13.9921455 13.3924837-13.9921455 20.888279 0 4.2975845-.899498 8.5951767-4.9971962 12.5929337-13.1925964 12.8927601-31.0825558 23.286929-43.9753199 40.77711-3.3980932 4.5974197-3.0982614 7.5957336-.5996637 9.9943924 2.398654 2.3986511 5.3969717 2.7984314 9.9943905-.5996628 17.3902397-12.8927689 27.8843498-30.7827225 40.6771698-43.9753227 3.997757-4.0976982 8.2953453-4.8972511 12.5929298-4.9971924 7.4957962 0 12.0932159-3.3980942 20.8882828-14.0920925l8.4952316-10.2942238c.5996628-.7995491.4997177-1.8989334-.1998825-2.5985394z"/></svg>